<svg width="264" height="44" viewBox="0 0 264 44" fill="none" xmlns="http://www.w3.org/2000/svg">
<g clip-path="url(#clip0_29:17)">
<g clip-path="url(#clip1_29:17)">
<path d="M20.832 16.5736L21.3451 16.7446C23.6039 17.4982 25.4664 19.3597 26.2209 21.6204L26.3901 22.1297C26.524 22.5317 26.753 22.9023 27.0519 23.2011L27.1754 23.3247L28.1257 22.3744L28.0022 22.2509C27.8501 22.0988 27.7332 21.9097 27.6653 21.7059L27.4961 21.1966C26.6091 18.5411 24.4235 16.3555 21.7709 15.4703L21.2563 15.2988C21.0544 15.2318 20.8667 15.1154 20.7147 14.9634L20.5911 14.8398L19.6409 15.7901L19.7644 15.9136C20.0637 16.213 20.4329 16.4415 20.832 16.5736Z" fill="url(#paint0_linear_29:17)"/>
<path d="M32.8323 25.4732L32.7781 25.3763C32.8333 25.325 32.8912 25.2784 32.9444 25.2252C33.9688 24.2008 34.5328 22.8386 34.5328 21.3904C34.5328 18.5492 35.6394 15.8785 37.6482 13.8697L40.9879 10.53L32.4356 1.97769L29.0959 5.31736C27.0871 7.3262 24.4164 8.43277 21.5756 8.4323C20.1269 8.43277 18.7647 8.99675 17.7404 10.0211C17.0714 10.6901 16.6157 11.4916 16.3701 12.3416L14.1299 14.5819C12.704 16.0077 11.605 17.7633 10.9441 19.6681L8.01639 22.5958C6.78439 23.8279 6.25319 25.583 6.59433 27.2915L6.63472 27.4906L7.72894 28.5848L12.6266 23.6872C13.334 22.9798 14.1508 22.4148 15.0293 21.9953C14.7233 24.2968 13.6889 26.4259 12.0193 28.0954L5.82843 34.2864L14.3807 42.8387L20.5712 36.6482C22.58 34.6394 25.2507 33.5328 28.0915 33.5333C29.5401 33.5328 30.9023 32.9688 31.9267 31.9445C33.6315 30.2397 34.004 27.579 32.8323 25.4732ZM21.3052 9.78973L24.1327 12.6856L28.2008 11.8722L27.4154 15.0123L30.0599 17.6569L31.0102 16.7066L28.9035 14.5999L29.5416 12.048L33.5155 14.4322L34.2068 13.28L29.2327 10.2957L24.5846 11.2256L23.0699 9.6738C25.7025 9.34739 28.1399 8.17383 30.0462 6.26761L32.4356 3.8782L39.0874 10.53L36.6979 12.9194C34.4354 15.182 33.1891 18.19 33.1896 21.39C33.1891 22.4804 32.7648 23.5043 31.9942 24.2749C30.4039 25.8652 27.8154 25.8652 26.2252 24.2749L26.1021 24.1519C25.6565 23.7062 25.3158 23.1546 25.1167 22.5574L24.9457 22.0452C24.6345 21.1125 24.1033 20.2525 23.4081 19.5574C22.713 18.8623 21.8526 18.3306 20.9204 18.0199L20.4087 17.8493C19.8114 17.6502 19.2598 17.3096 18.8141 16.8639L18.6911 16.7409C17.1004 15.1501 17.1004 12.5616 18.6906 10.9714C19.3971 10.2649 20.3174 9.85388 21.3052 9.78973ZM11.6763 22.737L7.84915 26.5641C7.76362 25.4495 8.16511 24.3476 8.96712 23.5456L12.1177 20.3951L12.1681 20.2449C12.7558 18.4789 13.7631 16.8492 15.0801 15.5321L16.1862 14.426C16.2651 15.1777 16.5036 15.9132 16.8946 16.5845C16.8376 16.6368 16.7773 16.6857 16.7226 16.7404C15.7154 17.7476 15.1561 19.0823 15.1376 20.5043C14.9005 20.5723 14.8568 20.5903 14.8288 20.6022C13.6462 21.1092 12.5857 21.8276 11.6763 22.737ZM28.092 32.1891C24.892 32.1887 21.8839 33.4349 19.6209 35.698L14.3807 40.9381L7.72894 34.2864L12.9691 29.0462C15.2317 26.7836 16.4779 23.7756 16.4775 20.5756C16.4779 19.4852 16.9022 18.4613 17.6729 17.6906C17.6848 17.6788 17.6981 17.6683 17.7104 17.6569C17.7213 17.6678 17.7304 17.6797 17.7413 17.6906L17.8644 17.8137C18.4568 18.4062 19.1904 18.8594 19.9844 19.1241L20.4961 19.2947C21.9671 19.785 23.181 20.9989 23.6718 22.4704L23.8424 22.9821C24.1061 23.7761 24.5589 24.5092 25.1514 25.1017L25.2745 25.2247C27.0049 26.9551 29.6223 27.2673 31.6754 26.1655C32.532 27.7424 32.2488 29.7218 30.9765 30.9942C30.2058 31.7649 29.1819 32.1891 28.092 32.1891Z" fill="url(#paint1_linear_29:17)"/>
<path d="M24.585 27.6113C22.7259 26.8145 21.2487 25.209 20.6096 23.2909L20.2447 22.1953L18.9695 22.6201L19.3344 23.7157C19.6965 24.8018 20.2932 25.8053 21.0529 26.6629L18.894 28.8219L15.5681 28.3468L12.4797 31.4351L13.43 32.3854L16.0432 29.7722L18.4597 30.1171L18.4597 34.2859L19.8034 34.2859L19.8038 29.8135L22.0127 27.6046C22.6304 28.1121 23.3145 28.5292 24.0562 28.8471L25.9947 29.6776L26.524 28.4423L24.585 27.6113Z" fill="url(#paint2_linear_29:17)"/>
</g>
<path d="M56.525 33V7.75H70.7011C71.9035 7.75 72.9856 8.02654 73.9475 8.57964C74.9335 9.10869 75.715 9.85416 76.2921 10.8161C76.8933 11.778 77.1939 12.9202 77.1939 14.2429C77.1939 15.5174 76.8212 16.6717 76.0757 17.7057C75.3543 18.7157 74.4285 19.4492 73.2982 19.9061C74.6208 20.363 75.715 21.1686 76.5807 22.3229C77.4464 23.4771 77.8793 24.7998 77.8793 26.2907C77.8793 27.6374 77.5667 28.8157 76.9414 29.8257C76.3402 30.8357 75.5346 31.6173 74.5246 32.1704C73.5146 32.7235 72.3844 33 71.1339 33H56.525ZM61.6832 17.9943H69.1861C69.9796 17.9943 70.653 17.7177 71.2061 17.1646C71.7592 16.6115 72.0357 15.9382 72.0357 15.1446C72.0357 14.3511 71.7592 13.6777 71.2061 13.1246C70.653 12.5715 69.9796 12.295 69.1861 12.295H61.6832V17.9943ZM61.6832 28.455H69.655C70.4967 28.455 71.2181 28.1544 71.8193 27.5532C72.4205 26.952 72.7211 26.2306 72.7211 25.3889C72.7211 24.5473 72.4205 23.8258 71.8193 23.2246C71.2181 22.6235 70.4967 22.3229 69.655 22.3229H61.6832V28.455ZM81.6721 33V14.6036H86.65V33H81.6721ZM84.1611 12.4032C83.3194 12.4032 82.586 12.1026 81.9607 11.5014C81.3595 10.8762 81.0589 10.1427 81.0589 9.30107C81.0589 8.4594 81.3595 7.73797 81.9607 7.13678C82.586 6.51155 83.3194 6.19893 84.1611 6.19893C85.0027 6.19893 85.7242 6.51155 86.3254 7.13678C86.9506 7.73797 87.2632 8.4594 87.2632 9.30107C87.2632 10.1427 86.9506 10.8762 86.3254 11.5014C85.7242 12.1026 85.0027 12.4032 84.1611 12.4032ZM100.126 33.4329C98.2266 33.4329 96.5312 33.012 95.0403 32.1704C93.5493 31.3046 92.371 30.1504 91.5053 28.7075C90.6396 27.2406 90.2067 25.6054 90.2067 23.8018C90.2067 21.9982 90.6396 20.375 91.5053 18.9321C92.371 17.4652 93.5493 16.311 95.0403 15.4693C96.5312 14.6036 98.2266 14.1707 100.126 14.1707C102.026 14.1707 103.721 14.6036 105.212 15.4693C106.703 16.311 107.882 17.4652 108.747 18.9321C109.613 20.375 110.046 21.9982 110.046 23.8018C110.046 25.6054 109.613 27.2406 108.747 28.7075C107.882 30.1504 106.703 31.3046 105.212 32.1704C103.721 33.012 102.026 33.4329 100.126 33.4329ZM100.126 29.2125C101.641 29.2125 102.832 28.6955 103.697 27.6614C104.587 26.6033 105.032 25.3168 105.032 23.8018C105.032 22.2868 104.587 21.0123 103.697 19.9782C102.832 18.9201 101.641 18.3911 100.126 18.3911C98.6113 18.3911 97.409 18.9201 96.5192 19.9782C95.6535 21.0123 95.2206 22.2868 95.2206 23.8018C95.2206 25.3168 95.6535 26.6033 96.5192 27.6614C97.409 28.6955 98.6113 29.2125 100.126 29.2125ZM111.313 33L119.537 10.5636C119.946 9.48143 120.583 8.67583 121.449 8.14678C122.339 7.59369 123.337 7.31714 124.443 7.31714C125.549 7.31714 126.547 7.58166 127.437 8.11071C128.326 8.61571 128.964 9.42131 129.348 10.5275L137.609 33H131.946L130.25 27.9139H118.491L116.723 33H111.313ZM120.042 23.3689H128.735L125.092 12.295C124.996 11.9824 124.791 11.8261 124.479 11.8261C124.214 11.8261 124.022 11.9824 123.902 12.295L120.042 23.3689ZM139.756 33V19.8339C139.756 18.1987 140.212 16.9242 141.126 16.0104C142.064 15.0725 143.351 14.6036 144.986 14.6036H150.072V18.8239H145.852C145.539 18.8239 145.262 18.9321 145.022 19.1486C144.806 19.365 144.697 19.6415 144.697 19.9782V33H139.756ZM159.883 33C158.247 33 156.961 32.5311 156.023 31.5932C155.109 30.6554 154.652 29.3808 154.652 27.7696V18.8239H151.514V14.6036H154.652V9.98643H159.594V14.6036H164.752V18.8239H159.594V27.6254C159.594 27.938 159.702 28.2145 159.919 28.455C160.159 28.6714 160.436 28.7796 160.748 28.7796H164.752V33H159.883ZM168.539 33V14.6036H173.517V33H168.539ZM171.028 12.4032C170.187 12.4032 169.453 12.1026 168.828 11.5014C168.227 10.8762 167.926 10.1427 167.926 9.30107C167.926 8.4594 168.227 7.73797 168.828 7.13678C169.453 6.51155 170.187 6.19893 171.028 6.19893C171.87 6.19893 172.591 6.51155 173.193 7.13678C173.818 7.73797 174.131 8.4594 174.131 9.30107C174.131 10.1427 173.818 10.8762 173.193 11.5014C172.591 12.1026 171.87 12.4032 171.028 12.4032ZM186.994 33C185.094 33 183.399 32.5912 181.908 31.7736C180.417 30.956 179.238 29.8618 178.373 28.4911C177.507 27.0963 177.074 25.5332 177.074 23.8018C177.074 22.0704 177.507 20.5193 178.373 19.1486C179.238 17.7538 180.417 16.6476 181.908 15.83C183.399 15.0124 185.094 14.6036 186.994 14.6036H189.302V18.8239H186.994C185.479 18.8239 184.276 19.3049 183.387 20.2668C182.521 21.2046 182.088 22.383 182.088 23.8018C182.088 25.1965 182.521 26.3749 183.387 27.3368C184.276 28.2987 185.479 28.7796 186.994 28.7796H189.302V33H186.994ZM201.722 33.4329C199.846 33.4329 198.235 33.0601 196.888 32.3146C195.541 31.5692 194.507 30.5712 193.786 29.3207C193.088 28.0702 192.74 26.6875 192.74 25.1725V14.6036H197.682V25.1725C197.682 26.2787 198.078 27.2286 198.872 28.0221C199.665 28.8157 200.615 29.2125 201.722 29.2125C202.852 29.2125 203.802 28.8157 204.571 28.0221C205.365 27.2286 205.762 26.2787 205.762 25.1725V14.6036H210.703V25.1725C210.703 26.6875 210.343 28.0702 209.621 29.3207C208.924 30.5712 207.902 31.5692 206.555 32.3146C205.232 33.0601 203.621 33.4329 201.722 33.4329ZM215.39 33V6.66786H220.332V33H215.39ZM232.257 33.4329C230.574 33.4329 229.107 33 227.856 32.1343C226.606 31.2686 225.632 30.1143 224.935 28.6714C224.261 27.2045 223.925 25.5933 223.925 23.8379C223.925 22.0343 224.309 20.399 225.079 18.9321C225.872 17.4652 227.003 16.311 228.47 15.4693C229.937 14.6036 231.692 14.1707 233.736 14.1707C235.804 14.1707 237.548 14.6036 238.966 15.4693C240.385 16.335 241.467 17.5013 242.213 18.9682C242.958 20.4351 243.331 22.0583 243.331 23.8379V33H238.389V29.9339H238.317C237.764 30.8958 237.007 31.7255 236.045 32.4229C235.107 33.0962 233.844 33.4329 232.257 33.4329ZM233.664 29.2125C235.107 29.2125 236.237 28.6835 237.055 27.6254C237.896 26.5673 238.317 25.2807 238.317 23.7657C238.317 22.2748 237.896 21.0123 237.055 19.9782C236.237 18.9201 235.107 18.3911 233.664 18.3911C232.197 18.3911 231.043 18.9201 230.201 19.9782C229.359 21.0123 228.939 22.2748 228.939 23.7657C228.939 25.2807 229.359 26.5673 230.201 27.6254C231.043 28.6835 232.197 29.2125 233.664 29.2125ZM247.829 33V19.8339C247.829 18.1987 248.286 16.9242 249.2 16.0104C250.138 15.0725 251.424 14.6036 253.059 14.6036H258.145V18.8239H253.925C253.612 18.8239 253.336 18.9321 253.095 19.1486C252.879 19.365 252.771 19.6415 252.771 19.9782V33H247.829Z" fill="url(#paint3_linear_29:17)"/>
</g>
<defs>
<linearGradient id="paint0_linear_29:17" x1="25.2958" y1="17.6698" x2="23.4082" y2="19.5574" gradientUnits="userSpaceOnUse">
<stop stop-color="#58D7FF"/>
<stop offset="1" stop-color="#8D36FC"/>
</linearGradient>
<linearGradient id="paint1_linear_29:17" x1="38.1371" y1="7.67922" x2="8.67919" y2="37.1371" gradientUnits="userSpaceOnUse">
<stop stop-color="#58D7FF"/>
<stop offset="1" stop-color="#8D36FC"/>
</linearGradient>
<linearGradient id="paint2_linear_29:17" x1="23.3564" y1="25.2746" x2="14.8378" y2="33.7932" gradientUnits="userSpaceOnUse">
<stop stop-color="#58D7FF"/>
<stop offset="1" stop-color="#8D36FC"/>
</linearGradient>
<linearGradient id="paint3_linear_29:17" x1="53.757" y1="45.1146" x2="270.772" y2="-0.0151304" gradientUnits="userSpaceOnUse">
<stop stop-color="#8D36FC"/>
<stop offset="1" stop-color="#58D7FF"/>
</linearGradient>
<clipPath id="clip0_29:17">
<rect width="264" height="44" fill="white"/>
</clipPath>
<clipPath id="clip1_29:17">
<rect width="43.0036" height="43.0036" fill="white" transform="translate(23.4081 -8) rotate(45)"/>
</clipPath>
</defs>
</svg>
