<svg width="58" height="58" viewBox="0 0 58 58" fill="none" xmlns="http://www.w3.org/2000/svg">
<g clip-path="url(#clip0_111_7)">
<g clip-path="url(#clip1_111_7)">
<path d="M26.1253 21.8959L26.7913 22.1179C29.7231 23.096 32.1406 25.5123 33.1199 28.4466L33.3395 29.1077C33.5134 29.6294 33.8106 30.1104 34.1986 30.4983L34.3589 30.6587L35.5923 29.4253L35.432 29.2649C35.2346 29.0676 35.0829 28.8221 34.9947 28.5576L34.7752 27.8965C33.6238 24.4497 30.787 21.6129 27.3439 20.4639L26.676 20.2413C26.4139 20.1544 26.1703 20.0033 25.973 19.8059L25.8126 19.6456L24.5792 20.879L24.7396 21.0393C25.1281 21.4278 25.6073 21.7245 26.1253 21.8959Z" fill="url(#paint0_linear_111_7)"/>
<path d="M41.7014 33.4474L41.6311 33.3216C41.7026 33.255 41.7779 33.1945 41.847 33.1255C43.1766 31.7959 43.9086 30.0278 43.9086 28.1481C43.9086 24.4602 45.3449 20.9937 47.9523 18.3863L52.2871 14.0514L41.1865 2.95078L36.8517 7.28559C34.2442 9.89301 30.7777 11.3293 27.0905 11.3287C25.2101 11.3293 23.442 12.0613 22.1124 13.391C21.2441 14.2593 20.6527 15.2997 20.3339 16.4029L17.4261 19.3107C15.5754 21.1614 14.1489 23.4401 13.2911 25.9125L9.49097 29.7126C7.89186 31.3117 7.20239 33.5899 7.64518 35.8075L7.6976 36.0659L9.11787 37.4862L15.4748 31.1292C16.3931 30.2109 17.4532 29.4777 18.5935 28.9331C18.1964 31.9204 16.8538 34.6839 14.6867 36.851L6.65105 44.8866L17.7517 55.9873L25.7868 47.9523C28.3942 45.3448 31.8607 43.9085 35.5479 43.9092C37.4283 43.9085 39.1964 43.1765 40.526 41.8469C42.7387 39.6342 43.2222 36.1806 41.7014 33.4474ZM26.7396 13.0906L30.4096 16.8494L35.6898 15.7936L34.6704 19.8694L38.1029 23.302L39.3364 22.0686L36.6019 19.3341L37.4301 16.0218L42.5882 19.1164L43.4855 17.6209L37.0293 13.7474L30.9961 14.9543L29.03 12.9401C32.4472 12.5165 35.6108 10.9932 38.0851 8.51899L41.1865 5.41759L49.8203 14.0514L46.7189 17.1528C43.7822 20.0896 42.1646 23.9939 42.1652 28.1474C42.1646 29.5628 41.6138 30.8918 40.6135 31.8921C38.5494 33.9562 35.1896 33.9562 33.1255 31.8921L32.9658 31.7323C32.3873 31.1539 31.9452 30.4379 31.6868 29.6627L31.4647 28.9979C31.0608 27.7873 30.3713 26.6711 29.4691 25.7688C28.5669 24.8666 27.45 24.1765 26.24 23.7732L25.5758 23.5518C24.8006 23.2934 24.0847 22.8512 23.5062 22.2727L23.3465 22.113C21.2817 20.0483 21.2817 16.6885 23.3458 14.6244C24.2629 13.7073 25.4574 13.1739 26.7396 13.0906ZM14.2414 29.8958L9.27389 34.8633C9.16289 33.4166 9.684 31.9864 10.725 30.9454L14.8144 26.8561L14.8797 26.6612C15.6426 24.3689 16.95 22.2536 18.6595 20.5441L20.0952 19.1084C20.1976 20.084 20.5072 21.0387 21.0147 21.9101C20.9407 21.9779 20.8624 22.0415 20.7915 22.1124C19.484 23.4198 18.7582 25.1521 18.7341 26.9979C18.4264 27.0861 18.3697 27.1095 18.3333 27.1249C16.7983 27.783 15.4218 28.7154 14.2414 29.8958ZM35.5486 42.1645C31.3951 42.1639 27.4907 43.7815 24.5533 46.7189L17.7517 53.5205L9.11787 44.8866L15.9195 38.085C18.8562 35.1483 20.4738 31.2439 20.4732 27.0904C20.4739 25.6751 21.0246 24.3461 22.0249 23.3458C22.0403 23.3304 22.0575 23.3168 22.0736 23.302C22.0878 23.3162 22.0995 23.3316 22.1137 23.3458L22.2734 23.5055C23.0424 24.2745 23.9946 24.8629 25.0251 25.2064L25.6893 25.4278C27.5986 26.0642 29.1743 27.6399 29.8114 29.5498L30.0328 30.214C30.375 31.2445 30.9627 32.1961 31.7318 32.9651L31.8915 33.1249C34.1375 35.3709 37.535 35.7761 40.1997 34.3459C41.3117 36.3928 40.9441 38.962 39.2926 40.6135C38.2923 41.6138 36.9633 42.1645 35.5486 42.1645Z" fill="url(#paint1_linear_111_7)"/>
<path d="M30.9967 36.2225C28.5835 35.1883 26.6662 33.1045 25.8367 30.6148L25.3631 29.1927L23.7078 29.7441L24.1815 31.1662C24.6514 32.576 25.426 33.8784 26.4121 34.9916L23.6098 37.7939L19.2929 37.1772L15.2843 41.1858L16.5177 42.4192L19.9096 39.0273L23.0461 39.475L23.0461 44.886L24.7902 44.886L24.7908 39.081L27.6578 36.2139C28.4595 36.8725 29.3476 37.414 30.3103 37.8266L32.8264 38.9046L33.5134 37.3012L30.9967 36.2225Z" fill="url(#paint2_linear_111_7)"/>
</g>
</g>
<defs>
<linearGradient id="paint0_linear_111_7" x1="31.9191" y1="23.3187" x2="29.4691" y2="25.7688" gradientUnits="userSpaceOnUse">
<stop stop-color="#58D7FF"/>
<stop offset="1" stop-color="#8D36FC"/>
</linearGradient>
<linearGradient id="paint1_linear_111_7" x1="48.5869" y1="10.3512" x2="10.3513" y2="48.5869" gradientUnits="userSpaceOnUse">
<stop stop-color="#58D7FF"/>
<stop offset="1" stop-color="#8D36FC"/>
</linearGradient>
<linearGradient id="paint2_linear_111_7" x1="29.4019" y1="33.1896" x2="18.345" y2="44.2465" gradientUnits="userSpaceOnUse">
<stop stop-color="#58D7FF"/>
<stop offset="1" stop-color="#8D36FC"/>
</linearGradient>
<clipPath id="clip0_111_7">
<rect width="58" height="58" fill="white"/>
</clipPath>
<clipPath id="clip1_111_7">
<rect width="55.8177" height="55.8177" fill="white" transform="translate(29.4691 -10) rotate(45)"/>
</clipPath>
</defs>
</svg>
