<svg width="45" height="45" viewBox="0 0 45 45" fill="none" xmlns="http://www.w3.org/2000/svg">
<g clip-path="url(#clip0_15:9)">
<g clip-path="url(#clip1_15:9)">
<path d="M20.832 16.5736L21.3452 16.7446C23.6039 17.4982 25.4664 19.3597 26.2209 21.6204L26.3901 22.1297C26.5241 22.5317 26.7531 22.9023 27.0519 23.2011L27.1755 23.3247L28.1257 22.3744L28.0022 22.2509C27.8501 22.0988 27.7333 21.9097 27.6653 21.7059L27.4962 21.1966C26.6091 18.5411 24.4235 16.3555 21.7709 15.4703L21.2563 15.2988C21.0544 15.2318 20.8667 15.1154 20.7147 14.9634L20.5911 14.8398L19.6409 15.7901L19.7644 15.9136C20.0637 16.213 20.4329 16.4415 20.832 16.5736Z" fill="url(#paint0_linear_15:9)"/>
<path d="M32.8323 25.4732L32.7781 25.3763C32.8333 25.325 32.8912 25.2784 32.9444 25.2252C33.9688 24.2008 34.5328 22.8386 34.5328 21.3904C34.5328 18.5492 35.6394 15.8785 37.6482 13.8697L40.9879 10.53L32.4356 1.97769L29.0959 5.31736C27.0871 7.3262 24.4164 8.43277 21.5756 8.4323C20.1269 8.43277 18.7647 8.99675 17.7404 10.0211C17.0714 10.6901 16.6157 11.4916 16.3701 12.3416L14.1299 14.5819C12.704 16.0077 11.605 17.7633 10.9441 19.6681L8.01639 22.5958C6.78439 23.8279 6.25319 25.583 6.59433 27.2915L6.63472 27.4906L7.72894 28.5848L12.6266 23.6872C13.334 22.9798 14.1508 22.4148 15.0293 21.9953C14.7233 24.2968 13.6889 26.4259 12.0193 28.0954L5.82843 34.2864L14.3807 42.8387L20.5712 36.6482C22.58 34.6394 25.2507 33.5328 28.0915 33.5333C29.5401 33.5328 30.9023 32.9688 31.9267 31.9445C33.6315 30.2397 34.004 27.579 32.8323 25.4732ZM21.3052 9.78973L24.1327 12.6856L28.2008 11.8722L27.4154 15.0123L30.0599 17.6569L31.0102 16.7066L28.9035 14.5999L29.5416 12.048L33.5155 14.4322L34.2068 13.28L29.2327 10.2957L24.5846 11.2256L23.0699 9.6738C25.7025 9.34739 28.1399 8.17383 30.0462 6.26761L32.4356 3.8782L39.0874 10.53L36.6979 12.9194C34.4354 15.182 33.1891 18.19 33.1896 21.39C33.1891 22.4804 32.7648 23.5043 31.9942 24.2749C30.4039 25.8652 27.8154 25.8652 26.2252 24.2749L26.1021 24.1519C25.6565 23.7062 25.3158 23.1546 25.1167 22.5574L24.9457 22.0452C24.6345 21.1125 24.1033 20.2525 23.4081 19.5574C22.713 18.8623 21.8526 18.3306 20.9204 18.0199L20.4087 17.8493C19.8114 17.6502 19.2598 17.3096 18.8141 16.8639L18.6911 16.7409C17.1004 15.1501 17.1004 12.5616 18.6906 10.9714C19.3971 10.2649 20.3174 9.85388 21.3052 9.78973ZM11.6763 22.737L7.84915 26.5641C7.76362 25.4495 8.16511 24.3476 8.96712 23.5456L12.1177 20.3951L12.1681 20.2449C12.7558 18.4789 13.7631 16.8492 15.0801 15.5321L16.1862 14.426C16.2651 15.1777 16.5036 15.9132 16.8946 16.5845C16.8376 16.6368 16.7773 16.6857 16.7226 16.7404C15.7154 17.7476 15.1561 19.0823 15.1376 20.5043C14.9005 20.5723 14.8568 20.5903 14.8288 20.6022C13.6462 21.1092 12.5857 21.8276 11.6763 22.737ZM28.092 32.1891C24.892 32.1887 21.8839 33.4349 19.6209 35.698L14.3807 40.9381L7.72894 34.2864L12.9691 29.0462C15.2317 26.7836 16.4779 23.7756 16.4775 20.5756C16.4779 19.4852 16.9022 18.4613 17.6729 17.6906C17.6848 17.6788 17.6981 17.6683 17.7104 17.6569C17.7213 17.6678 17.7304 17.6797 17.7413 17.6906L17.8644 17.8137C18.4568 18.4062 19.1904 18.8594 19.9844 19.1241L20.4961 19.2947C21.9671 19.785 23.181 20.9989 23.6718 22.4704L23.8424 22.9821C24.1061 23.7761 24.5589 24.5092 25.1514 25.1017L25.2745 25.2247C27.0049 26.9551 29.6223 27.2673 31.6754 26.1655C32.532 27.7424 32.2488 29.7218 30.9765 30.9942C30.2058 31.7649 29.1819 32.1891 28.092 32.1891Z" fill="url(#paint1_linear_15:9)"/>
<path d="M24.5851 27.6113C22.7259 26.8145 21.2487 25.209 20.6097 23.2909L20.2448 22.1953L18.9695 22.6201L19.3344 23.7157C19.6965 24.8018 20.2932 25.8053 21.053 26.6629L18.894 28.8219L15.5681 28.3468L12.4798 31.4351L13.43 32.3854L16.0432 29.7722L18.4597 30.1171L18.4597 34.2859L19.8034 34.2859L19.8039 29.8135L22.0127 27.6046C22.6304 28.1121 23.3146 28.5292 24.0563 28.8471L25.9948 29.6776L26.5241 28.4423L24.5851 27.6113Z" fill="url(#paint2_linear_15:9)"/>
</g>
</g>
<defs>
<linearGradient id="paint0_linear_15:9" x1="25.2958" y1="17.6698" x2="23.4082" y2="19.5574" gradientUnits="userSpaceOnUse">
<stop stop-color="#58D7FF"/>
<stop offset="1" stop-color="#8D36FC"/>
</linearGradient>
<linearGradient id="paint1_linear_15:9" x1="38.1371" y1="7.67922" x2="8.67919" y2="37.1371" gradientUnits="userSpaceOnUse">
<stop stop-color="#58D7FF"/>
<stop offset="1" stop-color="#8D36FC"/>
</linearGradient>
<linearGradient id="paint2_linear_15:9" x1="23.3564" y1="25.2746" x2="14.8378" y2="33.7932" gradientUnits="userSpaceOnUse">
<stop stop-color="#58D7FF"/>
<stop offset="1" stop-color="#8D36FC"/>
</linearGradient>
<clipPath id="clip0_15:9">
<rect width="45" height="45" fill="white"/>
</clipPath>
<clipPath id="clip1_15:9">
<rect width="43.0036" height="43.0036" fill="white" transform="translate(23.4081 -8) rotate(45)"/>
</clipPath>
</defs>
</svg>
